<svg xmlns="http://www.w3.org/2000/svg" xmlns:xlink="http://www.w3.org/1999/xlink" width="303" zoomAndPan="magnify" viewBox="0 0 227.25 1049.999952" height="1400" preserveAspectRatio="xMidYMid meet" version="1.0"><defs><g/><clipPath id="919141d3fa"><path d="M 225 1.726562 L 226.503906 1.726562 L 226.503906 1048.273438 L 225 1048.273438 Z M 225 1.726562 " clip-rule="nonzero"/></clipPath></defs><g clip-path="url(#919141d3fa)"><path stroke-linecap="butt" transform="matrix(0, 0.747533, -0.747533, 0, 226.404912, 1.99216)" fill="none" stroke-linejoin="miter" d="M 0.0000371744 0.499861 L 1399.374133 0.499861 " stroke="#000000" stroke-width="1" stroke-opacity="1" stroke-miterlimit="4"/></g><g fill="#000000" fill-opacity="1"><g transform="translate(118.866825, 870.097631)"><g><path d="M -55.828125 -34.242188 L -34.628906 -42.972656 L -9.496094 -32.710938 L -55.730469 -14.964844 C -63.117188 -12.183594 -65.035156 -11.511719 -65.898438 -14.484375 L -67.144531 -14.484375 L -67.144531 0.382812 L -65.898438 0.382812 C -65.035156 -1.726562 -63.117188 -3.933594 -55.730469 -6.714844 L 0 -27.914062 L 0 -30.597656 L -32.515625 -43.835938 L 0 -57.167969 L 0 -59.855469 L -55.730469 -79.902344 C -63.019531 -82.589844 -65.035156 -84.890625 -65.898438 -87.578125 L -67.144531 -87.578125 L -67.144531 -76.738281 L -65.898438 -76.738281 C -65.226562 -80 -61.964844 -80.574219 -55.730469 -78.273438 L -9.6875 -61.582031 L -41.054688 -48.632812 L -55.730469 -54.003906 C -63.019531 -56.691406 -65.035156 -58.992188 -65.898438 -61.675781 L -67.144531 -61.675781 L -67.144531 -51.125 L -65.898438 -51.125 C -65.226562 -54.292969 -62.0625 -54.675781 -55.730469 -52.277344 L -43.261719 -47.671875 L -55.921875 -42.492188 C -63.117188 -39.519531 -65.035156 -38.753906 -65.898438 -41.628906 L -67.144531 -41.628906 L -67.144531 -26.953125 L -65.898438 -26.953125 C -65.035156 -29.0625 -63.117188 -31.367188 -55.828125 -34.242188 Z M -55.828125 -34.242188 "/></g></g></g><g fill="#000000" fill-opacity="1"><g transform="translate(118.866825, 783.105383)"><g><path d="M 0.960938 -39.136719 C 0.960938 -55.25 -9.59375 -73.09375 -33.285156 -73.09375 C -56.785156 -73.09375 -67.914062 -55.347656 -67.914062 -39.136719 C -67.914062 -18.800781 -53.332031 -4.988281 -33.667969 -4.988281 C -9.878906 -4.988281 0.960938 -22.828125 0.960938 -39.136719 Z M -39.230469 -12.660156 C -54.867188 -12.085938 -65.707031 -20.625 -65.707031 -35.203125 C -65.707031 -52.375 -47 -64.9375 -26.953125 -65.609375 C -12.566406 -66.089844 -1.4375 -58.511719 -1.4375 -43.164062 C -1.4375 -25.996094 -19.953125 -13.332031 -39.230469 -12.660156 Z M -39.230469 -12.660156 "/></g></g></g><g fill="#000000" fill-opacity="1"><g transform="translate(118.866825, 705.128868)"><g><path d="M 0 -4.890625 L 0 -24.460938 C 0 -47.769531 -11.320312 -55.828125 -22.0625 -55.632812 C -31.460938 -55.539062 -39.230469 -48.632812 -40 -32.996094 C -42.015625 -43.933594 -47.960938 -48.152344 -54.484375 -48.152344 C -62.253906 -48.152344 -67.144531 -42.109375 -67.144531 -27.335938 L -67.144531 -4.890625 L -65.898438 -4.890625 C -65.035156 -7.769531 -62.828125 -8.730469 -54.964844 -8.730469 L -12.183594 -8.730469 C -4.316406 -8.730469 -2.109375 -7.769531 -1.246094 -4.890625 Z M -9.785156 -16.59375 L -38.753906 -16.59375 L -38.753906 -26.378906 C -38.753906 -40.765625 -30.695312 -46.90625 -19.664062 -46.90625 C -9.015625 -46.90625 -1.4375 -40.957031 -1.4375 -25.324219 L -1.4375 -21.582031 C -1.4375 -17.457031 -2.878906 -16.59375 -9.785156 -16.59375 Z M -40.191406 -16.59375 L -65.707031 -16.59375 L -65.707031 -23.882812 C -65.707031 -33.765625 -60.71875 -39.425781 -52.757812 -39.425781 C -45.753906 -39.425781 -40.191406 -35.011719 -40.191406 -25.515625 Z M -40.191406 -16.59375 "/></g></g></g><g fill="#000000" fill-opacity="1"><g transform="translate(118.866825, 646.430677)"><g><path d="M 0 -4.890625 L 0 -24.460938 C 0 -47.769531 -11.320312 -55.828125 -22.0625 -55.632812 C -31.460938 -55.539062 -39.230469 -48.632812 -40 -32.996094 C -42.015625 -43.933594 -47.960938 -48.152344 -54.484375 -48.152344 C -62.253906 -48.152344 -67.144531 -42.109375 -67.144531 -27.335938 L -67.144531 -4.890625 L -65.898438 -4.890625 C -65.035156 -7.769531 -62.828125 -8.730469 -54.964844 -8.730469 L -12.183594 -8.730469 C -4.316406 -8.730469 -2.109375 -7.769531 -1.246094 -4.890625 Z M -9.785156 -16.59375 L -38.753906 -16.59375 L -38.753906 -26.378906 C -38.753906 -40.765625 -30.695312 -46.90625 -19.664062 -46.90625 C -9.015625 -46.90625 -1.4375 -40.957031 -1.4375 -25.324219 L -1.4375 -21.582031 C -1.4375 -17.457031 -2.878906 -16.59375 -9.785156 -16.59375 Z M -40.191406 -16.59375 L -65.707031 -16.59375 L -65.707031 -23.882812 C -65.707031 -33.765625 -60.71875 -39.425781 -52.757812 -39.425781 C -45.753906 -39.425781 -40.191406 -35.011719 -40.191406 -25.515625 Z M -40.191406 -16.59375 "/></g></g></g><g fill="#000000" fill-opacity="1"><g transform="translate(118.866825, 587.732497)"><g><path d="M 0 -4.890625 L 0 -52.179688 L -12.757812 -52.949219 L -12.949219 -51.894531 C -4.027344 -48.441406 -1.4375 -42.589844 -1.4375 -33.378906 L -1.4375 -20.910156 C -1.4375 -18.128906 -2.972656 -16.59375 -5.753906 -16.59375 L -35.203125 -16.59375 L -35.203125 -28.871094 C -35.203125 -39.808594 -32.996094 -42.589844 -28.679688 -43.742188 L -28.679688 -44.890625 L -43.164062 -44.890625 L -43.164062 -43.742188 C -38.847656 -42.589844 -36.640625 -39.808594 -36.640625 -28.871094 L -36.640625 -16.59375 L -65.707031 -16.59375 L -65.707031 -30.695312 C -65.707031 -40.480469 -62.828125 -46.136719 -54.386719 -49.496094 L -54.675781 -50.550781 L -67.144531 -49.496094 L -67.144531 -4.890625 L -65.898438 -4.890625 C -65.035156 -7.769531 -62.828125 -8.730469 -54.964844 -8.730469 L -12.183594 -8.730469 C -4.316406 -8.730469 -2.109375 -7.769531 -1.246094 -4.890625 Z M 0 -4.890625 "/></g></g></g><g fill="#000000" fill-opacity="1"><g transform="translate(118.866825, 531.240296)"><g><path d="M 0 -4.890625 L 0 -30.023438 C 0 -51.125 -14.582031 -64.746094 -34.820312 -64.652344 C -50.359375 -64.554688 -67.144531 -54.195312 -67.144531 -27.816406 L -67.144531 -4.890625 L -65.898438 -4.890625 C -65.035156 -7.769531 -62.828125 -8.730469 -54.964844 -8.730469 L -12.183594 -8.730469 C -4.316406 -8.730469 -2.109375 -7.769531 -1.246094 -4.890625 Z M -8.441406 -16.59375 L -65.707031 -16.59375 L -65.707031 -23.117188 C -65.707031 -44.507812 -50.167969 -55.921875 -30.984375 -55.921875 C -10.933594 -55.921875 -1.4375 -46.617188 -1.4375 -29.832031 L -1.4375 -22.828125 C -1.4375 -17.554688 -3.933594 -16.59375 -8.441406 -16.59375 Z M -8.441406 -16.59375 "/></g></g></g><g fill="#000000" fill-opacity="1"><g transform="translate(118.866825, 461.704045)"><g><path d="M 0.671875 -53.714844 C 0.671875 -55.632812 0.480469 -58.128906 0 -59.566406 L -1.152344 -59.566406 C -1.054688 -59.085938 -1.054688 -58.609375 -1.054688 -58.03125 C -1.054688 -54.769531 -4.21875 -52.851562 -15.730469 -48.25 C -27.53125 -43.644531 -33.378906 -41.820312 -34.914062 -30.023438 C -36.355469 -42.492188 -43.164062 -49.015625 -52.179688 -49.015625 C -60.71875 -49.015625 -67.144531 -43.261719 -67.144531 -23.789062 L -67.144531 -4.890625 L -65.898438 -4.890625 C -65.035156 -7.867188 -62.828125 -8.730469 -54.964844 -8.730469 L -12.183594 -8.730469 C -4.316406 -8.730469 -2.109375 -7.867188 -1.246094 -4.890625 L 0 -4.890625 L 0 -20.429688 L -1.246094 -20.429688 C -2.109375 -17.457031 -4.316406 -16.59375 -12.183594 -16.59375 L -34.628906 -16.59375 L -34.628906 -22.734375 C -34.628906 -34.242188 -27.914062 -35.011719 -14.675781 -40.574219 C -4.699219 -44.796875 0.671875 -46.332031 0.671875 -53.714844 Z M -36.066406 -16.59375 L -65.515625 -16.59375 C -65.609375 -18.128906 -65.707031 -19.664062 -65.707031 -21.101562 C -65.707031 -35.300781 -58.511719 -40.863281 -49.976562 -40.863281 C -41.820312 -40.863281 -36.066406 -35.683594 -36.066406 -24.652344 Z M -36.066406 -16.59375 "/></g></g></g><g fill="#000000" fill-opacity="1"><g transform="translate(118.866825, 403.005845)"><g><path d="M 0.960938 -39.136719 C 0.960938 -55.25 -9.59375 -73.09375 -33.285156 -73.09375 C -56.785156 -73.09375 -67.914062 -55.347656 -67.914062 -39.136719 C -67.914062 -18.800781 -53.332031 -4.988281 -33.667969 -4.988281 C -9.878906 -4.988281 0.960938 -22.828125 0.960938 -39.136719 Z M -39.230469 -12.660156 C -54.867188 -12.085938 -65.707031 -20.625 -65.707031 -35.203125 C -65.707031 -52.375 -47 -64.9375 -26.953125 -65.609375 C -12.566406 -66.089844 -1.4375 -58.511719 -1.4375 -43.164062 C -1.4375 -25.996094 -19.953125 -13.332031 -39.230469 -12.660156 Z M -39.230469 -12.660156 "/></g></g></g><g fill="#000000" fill-opacity="1"><g transform="translate(118.866825, 325.02933)"><g><path d="M 0 -4.890625 L 0 -24.460938 C 0 -47.769531 -11.320312 -55.828125 -22.0625 -55.632812 C -31.460938 -55.539062 -39.230469 -48.632812 -40 -32.996094 C -42.015625 -43.933594 -47.960938 -48.152344 -54.484375 -48.152344 C -62.253906 -48.152344 -67.144531 -42.109375 -67.144531 -27.335938 L -67.144531 -4.890625 L -65.898438 -4.890625 C -65.035156 -7.769531 -62.828125 -8.730469 -54.964844 -8.730469 L -12.183594 -8.730469 C -4.316406 -8.730469 -2.109375 -7.769531 -1.246094 -4.890625 Z M -9.785156 -16.59375 L -38.753906 -16.59375 L -38.753906 -26.378906 C -38.753906 -40.765625 -30.695312 -46.90625 -19.664062 -46.90625 C -9.015625 -46.90625 -1.4375 -40.957031 -1.4375 -25.324219 L -1.4375 -21.582031 C -1.4375 -17.457031 -2.878906 -16.59375 -9.785156 -16.59375 Z M -40.191406 -16.59375 L -65.707031 -16.59375 L -65.707031 -23.882812 C -65.707031 -33.765625 -60.71875 -39.425781 -52.757812 -39.425781 C -45.753906 -39.425781 -40.191406 -35.011719 -40.191406 -25.515625 Z M -40.191406 -16.59375 "/></g></g></g><g fill="#000000" fill-opacity="1"><g transform="translate(118.866825, 266.33113)"><g><path d="M 0 -4.890625 L 0 -52.179688 L -12.757812 -52.949219 L -12.949219 -51.894531 C -4.027344 -48.441406 -1.4375 -42.589844 -1.4375 -33.378906 L -1.4375 -20.910156 C -1.4375 -18.128906 -2.972656 -16.59375 -5.753906 -16.59375 L -35.203125 -16.59375 L -35.203125 -28.871094 C -35.203125 -39.808594 -32.996094 -42.589844 -28.679688 -43.742188 L -28.679688 -44.890625 L -43.164062 -44.890625 L -43.164062 -43.742188 C -38.847656 -42.589844 -36.640625 -39.808594 -36.640625 -28.871094 L -36.640625 -16.59375 L -65.707031 -16.59375 L -65.707031 -30.695312 C -65.707031 -40.480469 -62.828125 -46.136719 -54.386719 -49.496094 L -54.675781 -50.550781 L -67.144531 -49.496094 L -67.144531 -4.890625 L -65.898438 -4.890625 C -65.035156 -7.769531 -62.828125 -8.730469 -54.964844 -8.730469 L -12.183594 -8.730469 C -4.316406 -8.730469 -2.109375 -7.769531 -1.246094 -4.890625 Z M 0 -4.890625 "/></g></g></g></svg>