<?xml version="1.0" encoding="utf-8"?>
<!-- Uploaded to: SVG Repo, www.svgrepo.com, Generator: SVG Repo Mixer Tools -->
<svg fill="#ffffff"  height="800px" width="800px" version="1.2" baseProfile="tiny" id="Layer_1" xmlns="http://www.w3.org/2000/svg" xmlns:xlink="http://www.w3.org/1999/xlink"
	  viewBox="-77 79 100 100" xml:space="preserve">
<path d="M22.5,130.4c-0.6-11.2-6.7-19.5-6.7-19.5s-10.1,8.2-19.4,8.9c-7.6,0.6-14.8-3-18.6-5.3c-0.2-0.1-0.4-0.2-0.5-0.3
	c-0.5-0.2-1-0.4-1.6-0.4c-0.9,0-1.6,0.3-2.2,0.8c-0.2,0.3-0.5,0.5-0.7,0.8c-4.2,4.9-13.3,15-20.6,19.1c-8.4,4.7-17.6,7.1-22.3,10.2
	c-9.8,6.3-5.8,14.5-5.8,14.5h49.7l25.9-10.6l-0.2,10.5l22.9,0.1C22.7,154.6,22.7,135.6,22.5,130.4z M-33.3,138.8
	c-1.1,1.2-2.9,1.2-4.1,0.1s-1.2-2.9-0.1-4.1s2.9-1.2,4.1-0.1S-32.3,137.7-33.3,138.8z M-26.9,131.9c-1.1,1.2-2.9,1.2-4.1,0.1
	c-1.2-1.1-1.2-2.9-0.1-4.1s2.9-1.2,4.1-0.1S-25.8,130.8-26.9,131.9z M-20.5,125c-1.1,1.2-2.9,1.2-4.1,0.1s-1.2-2.9-0.1-4.1
	c0.2-0.2,0.4-0.3,0.6-0.5c0.5-0.3,1-0.4,1.5-0.4c0.7,0,1.4,0.2,2,0.8C-19.5,122.1-19.4,123.9-20.5,125z"/>
</svg>